<?xml version="1.0" encoding="utf-8"?>
<!-- Generator: Adobe Illustrator 24.0.0, SVG Export Plug-In . SVG Version: 6.00 Build 0)  -->
<svg version="1.1" id="Calque_1" xmlns="http://www.w3.org/2000/svg" xmlns:xlink="http://www.w3.org/1999/xlink" x="0px" y="0px"
	 viewBox="0 0 16 14" style="enable-background:new 0 0 16 14;" xml:space="preserve">
<style type="text/css">
	.st0{fill:#18E7D3;}
</style>
<path class="st0" d="M14.3,3.8C15,3.3,15.5,2.7,16,2c-0.6,0.3-1.3,0.5-1.9,0.5c0.7-0.4,1.2-1,1.4-1.8c-0.7,0.4-1.3,0.7-2.1,0.8
	c-0.3-0.3-0.7-0.6-1.1-0.8s-0.8-0.3-1.3-0.3c-0.6,0-1.1,0.2-1.6,0.4C8.9,1.3,8.5,1.7,8.3,2.2C7.9,2.7,7.8,3.2,7.8,3.8
	c0,0.3,0,0.5,0.1,0.8c-1.3-0.1-2.6-0.4-3.8-1c-1.2-0.6-2.2-1.4-3-2.4C0.8,1.6,0.7,2.2,0.7,2.8s0.1,1.1,0.4,1.6
	c0.3,0.5,0.6,0.9,1.1,1.2c-0.5,0-1-0.2-1.5-0.4v0.1c0,0.8,0.3,1.5,0.8,2.1c0.5,0.6,1.1,1,1.9,1.2C3,8.4,2.7,8.4,2.4,8.4
	c-0.2,0-0.4,0-0.6,0C2,9.1,2.4,9.6,2.9,10c0.6,0.4,1.2,0.6,1.9,0.6c-1.2,0.9-2.6,1.4-4.1,1.4c-0.3,0-0.6,0-0.8,0
	c1.5,1,3.2,1.5,5,1.5c1.9,0,3.6-0.5,5.1-1.5c1.3-0.9,2.4-2,3.2-3.5c0.7-1.4,1.1-2.8,1.1-4.3C14.4,4,14.3,3.8,14.3,3.8z"/>
</svg>
