<?xml version="1.0" encoding="utf-8"?>
<!-- Generator: Adobe Illustrator 24.0.0, SVG Export Plug-In . SVG Version: 6.00 Build 0)  -->
<svg version="1.1" id="Calque_1" xmlns="http://www.w3.org/2000/svg" xmlns:xlink="http://www.w3.org/1999/xlink" x="0px" y="0px"
	 viewBox="0 0 16 16" style="enable-background:new 0 0 16 16;" xml:space="preserve">
<style type="text/css">
	.st0{fill:#18E7D3;}
</style>
<path class="st0" d="M5.4,12.4C5.4,12.4,5.4,12.4,5.4,12.4c-0.1-0.1-0.1-0.1-0.2-0.1c-0.1,0-0.2,0.1-0.2,0.1c0,0.1,0,0.1,0.2,0.1
	S5.4,12.5,5.4,12.4z M4.5,12.3c0-0.1,0.1-0.1,0.2-0.1c0.1,0,0.1,0.1,0.1,0.1c0,0.1,0,0.1-0.1,0.1c-0.1,0-0.1,0-0.1,0
	C4.5,12.4,4.5,12.4,4.5,12.3C4.4,12.3,4.4,12.3,4.5,12.3z M5.8,12.2c0.1,0,0.2,0,0.2,0.1s0,0.1-0.1,0.2c-0.1,0-0.1,0-0.1,0
	s-0.1-0.1-0.1-0.1C5.7,12.3,5.7,12.3,5.8,12.2z M7.9,0.3c1.4,0,2.7,0.3,3.9,1C13,1.9,14,2.8,14.7,4c0.7,1.2,1.1,2.5,1.1,3.9
	c0,1.8-0.5,3.3-1.5,4.7c-1,1.4-2.2,2.3-3.8,2.8c-0.2,0.1-0.3,0-0.4-0.1C10,15.2,10,15.1,10,15v-2.6c0-0.7-0.2-1.1-0.5-1.4
	c0.8-0.1,1.3-0.2,1.7-0.3c0.6-0.2,1-0.5,1.3-0.9C12.8,9.1,13,8.4,13,7.4c0-0.4-0.1-0.7-0.2-1c-0.1-0.2-0.3-0.5-0.6-0.8
	c0.1-0.2,0.1-0.4,0.2-0.8c0-0.4-0.1-0.9-0.2-1.4c-0.2-0.1-0.5,0-0.9,0.1c-0.3,0.1-0.6,0.3-0.9,0.4L10,4.3C9.3,4.2,8.7,4.1,8,4.1
	S6.7,4.2,6.1,4.3L5.7,4.1C5.3,3.9,5,3.8,4.8,3.6C4.4,3.5,4.1,3.4,3.9,3.5C3.7,4,3.6,4.4,3.7,4.9c0,0.3,0,0.5,0.1,0.7
	C3.6,5.9,3.4,6.2,3.3,6.5s-0.2,0.6-0.2,1c0,0.9,0.2,1.7,0.5,2.2c0.3,0.4,0.7,0.8,1.3,1c0.4,0.1,0.9,0.3,1.7,0.3
	c-0.3,0.3-0.4,0.6-0.5,1.1c-0.4,0.2-0.7,0.3-1,0.2c-0.6,0-1-0.3-1.3-0.8c-0.1-0.2-0.3-0.4-0.5-0.6c-0.2-0.1-0.3-0.2-0.5-0.2l-0.2,0
	c-0.3,0-0.4,0.1-0.4,0.1s0,0.2,0.2,0.2L2.6,11c0.1,0.1,0.3,0.2,0.4,0.4c0.1,0.2,0.2,0.3,0.3,0.5l0.1,0.3c0.1,0.3,0.3,0.6,0.6,0.7
	c0.3,0.2,0.5,0.3,0.9,0.3c0.3,0,0.5,0,0.8,0l0.3,0l0,1.9c0,0.1-0.1,0.3-0.2,0.3c-0.1,0.1-0.2,0.1-0.4,0.1c-1.6-0.5-2.9-1.4-3.8-2.8
	c-1-1.4-1.5-2.9-1.5-4.7c0-1.4,0.3-2.7,1-3.9C1.9,2.8,2.8,1.9,4,1.3C5.2,0.6,6.5,0.3,7.9,0.3z M3.3,11c0,0,0.1,0,0.2,0
	s0.1,0.1,0,0.2c-0.1,0.1-0.1,0-0.2,0S3.2,11.1,3.3,11z M2.9,10.8c0,0,0.1,0,0.2,0c0.1,0,0.1,0.1,0.1,0.1c0,0.1-0.1,0.1-0.2,0
	C2.9,10.9,2.9,10.8,2.9,10.8z M4,11.9C4,11.9,4,11.9,4,11.9c0.1,0,0.2,0,0.2,0.1S4.2,12,4.2,12c0,0.1,0,0.1,0,0.1
	c-0.1,0.1-0.2,0.1-0.2,0C3.9,12.1,3.9,12,4,11.9C3.9,11.9,3.9,11.9,4,11.9z M3.6,11.4C3.6,11.4,3.7,11.4,3.6,11.4
	c0.1,0,0.2,0,0.2,0.1c0.1,0.1,0.1,0.2,0,0.2c0,0-0.1,0-0.1,0c0,0-0.1,0-0.1-0.1C3.5,11.5,3.5,11.5,3.6,11.4z"/>
</svg>
