<?xml version="1.0" encoding="utf-8"?>
<!-- Generator: Adobe Illustrator 24.0.0, SVG Export Plug-In . SVG Version: 6.00 Build 0)  -->
<svg version="1.1" id="Calque_1" xmlns="http://www.w3.org/2000/svg" xmlns:xlink="http://www.w3.org/1999/xlink" x="0px" y="0px"
	 viewBox="0 0 14 14" style="enable-background:new 0 0 14 14;" xml:space="preserve">
<style type="text/css">
	.st0{fill:#18E7D3;}
</style>
<path class="st0" d="M7,3.4c0.6,0,1.2,0.2,1.8,0.5s1,0.8,1.3,1.3c0.3,0.6,0.5,1.2,0.5,1.8c0,0.7-0.2,1.3-0.5,1.8
	c-0.3,0.6-0.8,1-1.3,1.3S7.6,10.6,7,10.6c-0.7,0-1.3-0.2-1.8-0.5s-1-0.8-1.3-1.3S3.4,7.7,3.4,7c0-0.6,0.2-1.2,0.5-1.8s0.8-1,1.3-1.3
	S6.3,3.4,7,3.4z M7,9.3c0.6,0,1.2-0.2,1.7-0.7c0.4-0.4,0.7-1,0.7-1.7c0-0.6-0.3-1.2-0.7-1.7C8.2,4.9,7.6,4.7,7,4.7
	c-0.7,0-1.2,0.3-1.7,0.7C4.9,5.8,4.7,6.4,4.7,7c0,0.7,0.2,1.2,0.7,1.7C5.8,9.1,6.3,9.3,7,9.3z M11.6,3.3c0-0.2-0.1-0.4-0.3-0.6
	c-0.2-0.2-0.4-0.3-0.6-0.3c-0.3,0-0.4,0.1-0.6,0.3C10,2.8,9.9,3,9.9,3.3c0,0.3,0.1,0.4,0.2,0.6c0.2,0.2,0.3,0.3,0.6,0.3
	c0.2,0,0.4-0.1,0.6-0.3C11.5,3.7,11.6,3.5,11.6,3.3z M14,4.1c0,0.6,0,1.6,0,2.9c0,1.4,0,2.3-0.1,2.9c0,0.6-0.1,1.1-0.3,1.5
	c-0.2,0.5-0.5,1-0.9,1.4s-0.8,0.7-1.3,0.8c-0.4,0.2-1,0.3-1.6,0.3c-0.6,0-1.6,0-2.9,0c-1.4,0-2.3,0-2.9,0c-0.6,0-1.1-0.1-1.5-0.3
	c-0.5-0.2-1-0.4-1.4-0.8S0.5,12,0.3,11.5C0.2,11,0.1,10.5,0,9.9C0,9.3,0,8.4,0,7c0-1.3,0-2.3,0-2.9S0.2,3,0.3,2.5
	c0.2-0.5,0.5-1,0.8-1.3S2,0.5,2.5,0.3C3,0.2,3.5,0.1,4.1,0.1S5.6,0,7,0c1.3,0,2.3,0,2.9,0.1s1.1,0.1,1.6,0.3c0.5,0.2,1,0.5,1.3,0.9
	s0.7,0.8,0.9,1.3C13.8,3,13.9,3.5,14,4.1z M12.5,11.1c0.1-0.3,0.2-0.9,0.3-1.7c0-0.4,0-1.1,0-1.9v-1c0-0.8,0-1.5,0-1.9
	c-0.1-0.8-0.1-1.3-0.3-1.7c-0.3-0.6-0.7-1.1-1.3-1.3c-0.3-0.1-0.9-0.2-1.7-0.3c-0.5,0-1.1,0-1.9,0h-1c-0.8,0-1.5,0-1.9,0
	C3.8,1.3,3.2,1.4,2.9,1.5C2.2,1.8,1.8,2.3,1.5,2.9C1.4,3.2,1.3,3.8,1.3,4.6c0,0.5,0,1.1,0,1.9v1c0,0.8,0,1.5,0,1.9
	c0,0.8,0.1,1.3,0.3,1.7c0.3,0.7,0.7,1.1,1.3,1.3c0.3,0.1,0.9,0.2,1.7,0.3c0.4,0,1.1,0,1.9,0h1c0.8,0,1.5,0,1.9,0
	c0.8,0,1.3-0.1,1.7-0.3C11.8,12.2,12.2,11.8,12.5,11.1z"/>
</svg>
