<?xml version="1.0" encoding="utf-8"?>
<!-- Generator: Adobe Illustrator 24.0.0, SVG Export Plug-In . SVG Version: 6.00 Build 0)  -->
<svg version="1.1" id="Calque_1" xmlns="http://www.w3.org/2000/svg" xmlns:xlink="http://www.w3.org/1999/xlink" x="0px" y="0px"
	 viewBox="0 0 16 16" style="enable-background:new 0 0 16 16;" xml:space="preserve">
<style type="text/css">
	.st0{fill:#18E7D3;}
</style>
<path class="st0" d="M8,0.3c1.4,0,2.7,0.4,3.9,1.1s2.1,1.6,2.8,2.8s1.1,2.5,1.1,3.9c0,1.4-0.4,2.7-1.1,3.9s-1.6,2.2-2.8,2.8
	c-1.2,0.7-2.5,1-3.9,1c-1.4,0-2.7-0.3-3.9-1C2.9,14,2,13.1,1.3,11.9s-1-2.5-1-3.9c0-1.4,0.3-2.7,1-3.9S2.9,2,4.1,1.3S6.6,0.3,8,0.3z
	 M11.8,5.6c0-0.3,0-0.4-0.1-0.5s-0.3-0.2-0.4-0.1L3.8,7.8C3.5,7.9,3.4,8,3.4,8.2s0.1,0.2,0.3,0.3L5.6,9l4.4-2.8
	c0.1-0.1,0.2-0.1,0.3-0.1c0.1,0,0.1,0.1,0,0.1L6.7,9.6l-0.2,2c0.1,0,0.3-0.1,0.4-0.2l0.9-0.9l1.9,1.4c0.4,0.2,0.6,0.1,0.7-0.3
	L11.8,5.6z"/>
</svg>
