<?xml version="1.0" encoding="utf-8"?>
<!-- Generator: Adobe Illustrator 24.0.0, SVG Export Plug-In . SVG Version: 6.00 Build 0)  -->
<svg version="1.1" id="Calque_1" xmlns="http://www.w3.org/2000/svg" xmlns:xlink="http://www.w3.org/1999/xlink" x="0px" y="0px"
	 viewBox="0 0 14 16" style="enable-background:new 0 0 14 16;" xml:space="preserve">
<style type="text/css">
	.st0{fill:#18E7D3;}
</style>
<path class="st0" d="M9.3,7.6C9.3,7.3,9.2,7.2,9,7C8.9,6.8,8.7,6.7,8.5,6.7C8.2,6.7,8,6.8,7.9,7C7.7,7.2,7.7,7.3,7.7,7.6
	s0.1,0.5,0.2,0.7s0.3,0.3,0.6,0.3c0.2,0,0.4-0.1,0.6-0.3S9.3,7.8,9.3,7.6z M5.6,6.7C5.8,6.7,6,6.8,6.1,7c0.2,0.2,0.3,0.4,0.3,0.6
	S6.3,8.1,6.1,8.3S5.8,8.5,5.6,8.5C5.3,8.5,5.1,8.4,5,8.3S4.8,7.8,4.8,7.6S4.8,7.2,5,7C5.1,6.8,5.3,6.7,5.6,6.7z M14,1.7
	c0-0.4-0.2-0.8-0.5-1.2S12.8,0,12.4,0H1.6C1.2,0,0.8,0.2,0.5,0.5S0,1.2,0,1.7v10.8c0,0.5,0.2,0.9,0.5,1.2c0.3,0.3,0.7,0.5,1.2,0.5
	h9.1l-0.4-1.5l0.6,0.6c0.9,0.8,1.7,1.6,2.3,2.1L14,16V1.7z M11.7,9.2l-0.1,0.2c-0.1,0.2-0.3,0.3-0.4,0.4c-0.3,0.2-0.5,0.3-0.8,0.4
	c-0.4,0.2-0.7,0.2-1.1,0.2L8.8,9.8c0.3-0.1,0.6-0.2,0.8-0.4C9.8,9.3,9.9,9.2,10.1,9l0.1-0.2C9.9,9.1,9.6,9.2,9.3,9.3
	C8.4,9.7,7.6,9.8,6.6,9.8C5.8,9.7,5,9.4,4.3,9L3.9,8.8L4.1,9c0.1,0.1,0.3,0.3,0.4,0.4C4.8,9.6,5,9.7,5.3,9.8l-0.5,0.7
	c-0.4,0-0.8-0.1-1.1-0.2C3.4,10.2,3.2,10,2.9,9.8C2.8,9.7,2.6,9.6,2.5,9.4L2.4,9.2c0-0.8,0.1-1.5,0.3-2.3C2.8,6.3,3,5.8,3.2,5.2
	l0.3-0.7C3.8,4.3,4.2,4.1,4.6,4c0.3-0.1,0.5-0.2,0.8-0.2l0.3,0l0.1,0.1C5.4,3.9,5,4.1,4.7,4.3C4.4,4.4,4.2,4.6,4,4.7L3.8,4.9
	l0.5-0.3c0.9-0.4,1.9-0.6,3-0.6c1.1,0,2,0.3,3,0.8c-0.1-0.1-0.3-0.2-0.5-0.3C9.3,4.3,8.8,4,8.2,3.8l0.1-0.1c0.2,0,0.4,0,0.7,0.1
	c0.6,0.2,1.1,0.4,1.6,0.8c0.2,0.4,0.4,0.8,0.6,1.4C11.5,7.1,11.7,8.2,11.7,9.2z"/>
</svg>
